# xmcd CD database file
#
# Track frame offsets:
#	150
#	15849
#	28315
#	49430
#	71915
#	90075
#	111416
#	126734
#	146738
#	164308
#	180784
#	211015
#	220447
#
# Disc length: 3097 seconds
#
# Revision: 0
# Processed by: cddbd v1.5.1PL0 Copyright (c) Steve Scherf et al.
# Submitted via: CDex 1.51
#
DISCID=bc0c170d
DTITLE=Side Track - The Best of
DYEAR=2005
DGENRE=Blues
TTITLE0=Five to seven
TTITLE1=I should go
TTITLE2=Someday
TTITLE3=Stop the river
TTITLE4=Gold fish
TTITLE5=Do that
TTITLE6=Hit the road
TTITLE7=Leaving home
TTITLE8=Juanita
TTITLE9=I paid the bill
TTITLE10=Sweet blues
TTITLE11=Sailor's boogie
TTITLE12=Now you're gone
EXTD=YEAR: 2005
EXTT0=
EXTT1=
EXTT2=
EXTT3=
EXTT4=
EXTT5=
EXTT6=
EXTT7=
EXTT8=
EXTT9=
EXTT10=
EXTT11=
EXTT12=
PLAYORDER=
